<?xml version="1.0" encoding="UTF-8"?>
<svg id="Layer_1" data-name="Layer 1" xmlns="http://www.w3.org/2000/svg" viewBox="0 0 107.31 85.27">
  <defs>
    <style>
      .cls-1 {
        fill: #000;
        stroke-width: 0px;
      }
    </style>
  </defs>
  <path class="cls-1" d="M0,73.95c0,6.26,5.06,11.32,11.31,11.32,4.18,0,7.85-2.27,9.8-5.65.76-1.31,1.27-2.8,1.44-4.37.05-.42.08-.85.08-1.3,0-6.24-5.07-11.31-11.32-11.31-3.63,0-6.87,1.72-8.94,4.38C.89,68.94,0,71.34,0,73.95ZM9.47,79.62c-2.39-.78-4.12-3.02-4.12-5.67,0-3.28,2.68-5.96,5.95-5.96s5.96,2.68,5.96,5.96c0,.45-.05.88-.15,1.3-.14.64-.38,1.25-.72,1.78-.72,1.21-1.88,2.14-3.25,2.59-.58.18-1.19.29-1.84.29s-1.26-.1-1.84-.29Z"/>
  <path class="cls-1" d="M84.67,73.95c0,.45.03.88.08,1.3.18,1.57.68,3.06,1.44,4.37,1.97,3.38,5.61,5.65,9.8,5.65,6.24,0,11.32-5.06,11.32-11.32,0-4.66-2.82-8.65-6.83-10.38-1.38-.6-2.9-.93-4.49-.93-6.24,0-11.32,5.06-11.32,11.31ZM90.69,76.67c-.42-.81-.66-1.73-.66-2.72,0-3.28,2.66-5.96,5.96-5.96.9,0,1.75.2,2.51.56,2.03.93,3.45,3,3.45,5.39,0,3.29-2.66,5.96-5.95,5.96-2.31,0-4.32-1.31-5.3-3.24Z"/>
  <path class="cls-1" d="M23.85,75.41c-.16,1.47-.59,2.87-1.27,4.21h62.14c-.67-1.31-1.1-2.73-1.27-4.21-.07-.46-.09-.96-.09-1.46,0-6.95,5.67-12.62,12.63-12.62,1.44,0,2.83.25,4.17.72-1.18-4.92-4.7-12.75-15.25-15.27L64,0H18.21s-.6,4.39-.6,4.39l-5.56,40-7.23-.16c-.64-.01-1.26.22-1.72.68-.46.45-.72,1.06-.72,1.69v4.49s8.75-.08,8.75-.08h2.18s.22-.01.22-.01c5.92.01,10.77.74,14.8,1.85h.05s-3.49-5.51-3.49-5.51c-1.06-1.68-2.91-2.71-4.91-2.77l-5.53-.12L19.99,4.56h43.44s.22.49.22.49l18.42,41.21c-1.4-.18-2.92-.29-4.55-.29v6.74s-7.47-7.47-7.47-7.47l5.13-5.13c.46-.46.46-1.22,0-1.68-.47-.46-1.22-.46-1.69,0l-5.88,5.88s-.08.04-.11.08c-.03.03-.05.08-.08.11l-5.37,5.37c-.46.46-.46,1.22,0,1.68.23.23.54.35.84.35s.61-.12.84-.35l4.62-4.62,9.16,9.16v7.55c0,3.29-2.66,5.96-5.96,5.96h-17.86v-10.09s-14.28,0-14.28,0c0,0,0,0,0,0h-.01s0,0,0,0h17.71s0-1.12,0-1.12c0-3.29-2.67-5.96-5.96-5.96h-18.11s-1.16-4.59-1.16-4.59l1.33-.36c1.79-.48,2.91-2.25,2.59-4.07l-2.25-12.76c-.17-.99-.76-1.86-1.6-2.39-.84-.54-1.88-.7-2.84-.44l-2.9.78-.96.24,6.68,26.53c-1.1-.43-2.29-.82-3.58-1.18h-.05c-.51-.16-1.04-.29-1.58-.42-1.06-.26-2.19-.49-3.38-.67-.48-.08-.97-.16-1.47-.22-.73-.11-1.5-.18-2.27-.26-.66-.07-1.32-.12-2.02-.16-.68-.04-1.38-.08-2.1-.09-.71-.03-1.43-.04-2.17-.04h-.04s-2.36.03-2.36.03l-8.57.07v12.63c2.35-2.37,5.54-3.71,8.94-3.71,6.97,0,12.63,5.67,12.63,12.62,0,.49-.03.98-.09,1.46ZM45.82,67.02c-.19-.38-.41-.79-.67-1.23,1.31,2.18,1.69,3.75,1.7,3.78h0s0-.01-.01-.03c0-.01,0-.04-.01-.07-.03-.1-.09-.31-.2-.62-.01-.07-.04-.13-.06-.2-.03-.08-.05-.16-.09-.24-.05-.14-.12-.29-.18-.45-.08-.21-.19-.42-.3-.66-.04-.1-.09-.21-.16-.31ZM45.12,65.75c-.26-.43-.56-.89-.9-1.35.34.47.64.92.9,1.35ZM42.92,62.77c-.22-.26-.45-.51-.7-.77.76.79,1.39,1.56,1.93,2.3-.12-.16-.23-.33-.36-.48-.13-.17-.27-.34-.42-.53-.14-.17-.29-.35-.44-.53ZM40.75,60.6c-.42-.37-.85-.73-1.32-1.1,1.03.79,1.91,1.59,2.68,2.38-.24-.24-.48-.49-.75-.73-.19-.19-.39-.37-.6-.55ZM34.74,56.61c-.33-.17-.67-.32-1.02-.48.35.16.69.32,1.02.48ZM38.08,58.54c-.2-.13-.41-.26-.61-.39.21.13.41.26.61.39ZM36.44,57.52c-.22-.12-.44-.25-.67-.37.23.12.45.25.67.37Z"/>
</svg>